inDegrees=no
num_controls=7
num_derivatives=13
num_iterations=115
num_multipliers=7
num_parameters=0
num_slacks=7
num_states=26
objective=0.477040
objective_accelerations=0.044703
objective_balance=0.003704
objective_effort=0.040847
objective_height=0.382124
objective_ligament=0.005661
solver_duration=1605.023959
status=Solve_Succeeded
success=true
DataType=double
version=3
OpenSimVersion=4.5
endheader
time	/jointset/ground_pelvis/pelvis_tilt/value	/jointset/ground_pelvis/pelvis_tx/value	/jointset/ground_pelvis/pelvis_ty/value	/jointset/hip_l/hip_flexion_l/value	/jointset/hip_l/hip_adduction_l/value	/jointset/hip_l/hip_rotation_l/value	/jointset/back/lumbar_extension/value	/jointset/patellofemoral_l/patellar_flexion_l/value	/jointset/knee_l/knee_flexion_l/value	/jointset/knee_l/knee_adduction_l/value	/jointset/knee_l/knee_rotation_l/value	/jointset/ankle_l/ankle_angle_l/value	/jointset/subtalar_l/subtalar_angle_l/value	/jointset/ground_pelvis/pelvis_tilt/speed	/jointset/ground_pelvis/pelvis_tx/speed	/jointset/ground_pelvis/pelvis_ty/speed	/jointset/hip_l/hip_flexion_l/speed	/jointset/hip_l/hip_adduction_l/speed	/jointset/hip_l/hip_rotation_l/speed	/jointset/back/lumbar_extension/speed	/jointset/patellofemoral_l/patellar_flexion_l/speed	/jointset/knee_l/knee_flexion_l/speed	/jointset/knee_l/knee_adduction_l/speed	/jointset/knee_l/knee_rotation_l/speed	/jointset/ankle_l/ankle_angle_l/speed	/jointset/subtalar_l/subtalar_angle_l/speed	/forceset/tau_hip_flexion_l	/forceset/tau_hip_adduction_l	/forceset/tau_hip_rotation_l	/forceset/tau_knee_flexion_l	/forceset/tau_ankle_angle_l	/forceset/tau_subtalar_angle_l	/forceset/tau_lumbar_extension	lambda_cid13_p0	lambda_cid13_p1	lambda_cid13_p2	lambda_cid13_p3	lambda_cid13_p4	lambda_cid13_p5	lambda_cid14_p0	/jointset/ground_pelvis/pelvis_tilt/accel	/jointset/ground_pelvis/pelvis_tx/accel	/jointset/ground_pelvis/pelvis_ty/accel	/jointset/hip_l/hip_flexion_l/accel	/jointset/hip_l/hip_adduction_l/accel	/jointset/hip_l/hip_rotation_l/accel	/jointset/back/lumbar_extension/accel	/jointset/patellofemoral_l/patellar_flexion_l/accel	/jointset/knee_l/knee_flexion_l/accel	/jointset/knee_l/knee_adduction_l/accel	/jointset/knee_l/knee_rotation_l/accel	/jointset/ankle_l/ankle_angle_l/accel	/jointset/subtalar_l/subtalar_angle_l/accel	gamma_cid13_p0	gamma_cid13_p1	gamma_cid13_p2	gamma_cid13_p3	gamma_cid13_p4	gamma_cid13_p5	gamma_cid14_p0
1.5	0.00790523792570875	-0.01328081273528925	0.8516798087843399	0.677929748667652	-0.322214070439533	-0.1325963569726839	-0.7973710826995127	0.7797934757239255	0.7797934757238553	-0.102036453335192	-0.1745228977189658	0.1517461144471514	0.0238418979916959	0.32200178872557	0.2348450639319618	0.42591437684487	-1.993932921519711	0.08383517938982527	-0.642891702211778	0.8379908388547918	-2.000075643719881	-2.000075643719879	-0.1469232087462106	-0.000232964627360165	-0.4502352889867365	-0.06175149381067575	-0.1969359619620457	0.02225499092665481	-0.00540284614358234	-0.2288712492291507	0.06972179416936913	0.04055163489660742	0.2792630957152695	-19.7392834030239	-16.414140851687	4.742615737802437	-8.375166763171153	-669.54516671147	-75.37912032674916	-15.20935046354389	-0.01022295621460104	0.6697837236138398	-0.6175506767380189	-0.7100061799871487	0.4759044364550086	-0.3789002648324146	2.003907723442527	-1.004690612347594	-1.004690612347607	-0.2465336423823653	0.0185713618059372	-0.272009470159466	0.460179834640047	3.320511897128266e-07	8.960018176510041e-07	-1.519282116166632e-06	-3.981362089829317e-08	4.087434190375875e-07	5.452990078388287e-07	2.950790054802996e-07
1.51	0.01112460531871351	-0.01089906387695448	0.8559072595368518	0.6579565821949728	-0.3213528364649789	-0.1390437584356581	-0.7888922760859963	0.7597446920448723	0.7597446920448098	-0.1035197833567655	-0.1745254780322115	0.1472305771987615	0.0232463780213315	0.3218291516867916	0.2414818968888331	0.4194900704416477	-2.000452128398561	0.08840806391702764	-0.6464961792046826	0.8576708442018198	-2.009410162383983	-2.009410162383998	-0.149762454644933	-0.0002620544983380774	-0.4527868171016857	-0.05733539884449637	-0.1899356726436404	0.02135758831259033	-0.005168962074998157	-0.2248525067581825	0.07003670825495097	0.03992968059108688	0.2724113039067975	-19.4089165745764	-16.25564050242669	4.778763707148602	-8.266267241384979	-665.1366259469471	-75.36580844494912	-15.92846294335303	-0.02714940049911263	0.6572244545500856	-0.6676529019155092	-0.5856214100461301	0.4474252922779656	-0.3371074224583198	1.935100993313118	-0.8572450607329757	-0.8572450607352955	-0.3053846089041357	-0.01067514108923773	-0.2338758258302037	0.434788255303094	2.788163461890822e-07	1.179460886728346e-06	-1.135770236824989e-06	2.936244148507792e-08	3.805412495117203e-07	5.839970172003447e-07	2.720037932036607e-07
1.52	0.01434097327677158	-0.008451628414485742	0.8600679107693712	0.6379256749598622	-0.3204459846788675	-0.145524381869749	-0.7802196586084138	0.7396106806657186	0.7396106806656662	-0.105032058746381	-0.1745277544400759	0.1426920944004886	0.02269551178616814	0.3214019017364295	0.2479823847587544	0.4125544728463737	-2.005481074005899	0.09295874170123436	-0.6495360964351415	0.876753011668056	-2.017121183739742	-2.017121183739772	-0.1527122823551334	-0.0001721835508990432	-0.4548243989633375	-0.05282074677046857	-0.1829353833252335	0.0204601856985266	-0.004935078006393807	-0.220833764287215	0.07035162234053274	0.03930772628556712	0.2655595120983265	-19.07806517743536	-16.0986023880441	4.816719144146662	-8.198344143078248	-660.7533118964566	-75.39821377918416	-16.6367471295538	-0.06114553853134977	0.6425147062238552	-0.719808915148348	-0.4119539256848455	0.4714630878558805	-0.2659883123432759	1.884340147284148	-0.6799911506788415	-0.6799911506788417	-0.268650004677948	0.04236352548935364	-0.1692202194999923	0.4798912562097448	2.206034059132211e-07	1.486398814817074e-06	-7.35347691730222e-07	1.015936577909438e-07	3.501958745031952e-07	6.101160762275425e-07	2.489392600504347e-07
1.53	0.0175518154434113	-0.005939922181488234	0.8641567430065268	0.6178518904243512	-0.3194935852041576	-0.1520342246622952	-0.7713594587589246	0.7194077116447688	0.7194077116447544	-0.106573085237851	-0.1745295944117869	0.1381358726471509	0.02219051755391814	0.3207229646381476	0.254330504792681	0.4051339834612225	-2.009024326302699	0.09751521159575408	-0.6523496545658393	0.8951670137334754	-2.023195659692585	-2.023195659692574	-0.155503043931612	-0.0001835696088576619	-0.4563307132875051	-0.0481623579426785	-0.1757148382758129	0.01936912837191212	-0.00476296979585514	-0.2172350072937947	0.07102294351146292	0.03856011766563477	0.258538392528429	-18.65381310914674	-15.89578247576271	4.838735283037237	-8.128582623494037	-656.5880360732402	-75.39176843137595	-17.33465315394137	-0.07780996694109522	0.6267505904081532	-0.7648075969677183	-0.2877918661028238	0.4466197826901678	-0.2764169091449173	1.80193856170199	-0.5296744128737094	-0.5296744128674896	-0.2854663288061489	-0.0210808099047734	-0.1278851767542739	0.4608679878354661	1.571012378382362e-07	1.818283030605399e-06	-3.169575642727609e-07	1.770709751394603e-07	3.175733436693464e-07	6.228700005245271e-07	2.258860734658351e-07
1.54	0.02075455980477431	-0.003365576760465258	0.8681690426204769	0.5977502171689868	-0.3184958448620141	-0.1585696785052903	-0.7623187172236751	0.6991522981452347	0.6991522981452564	-0.1081422547640234	-0.17453118647177	0.1335672781229958	0.02173251826830041	0.3197823406812884	0.2605102223638481	0.397247948205298	-2.011058817976511	0.1020269151878788	-0.6546583065250133	0.9128613488201421	-2.027610079456893	-2.02761007945684	-0.1583408892950231	-0.0001226012054690024	-0.4572989531268379	-0.04342175744401536	-0.1684942932263892	0.01827807104530022	-0.004590861585340231	-0.2136362503003728	0.07169426468239386	0.03781250904570592	0.2515172729585333	-18.22723580622499	-15.69474665200117	4.862608879696283	-8.097940908330548	-652.4187761635242	-75.41093130256478	-18.02318724874638	-0.113482910246828	0.6088342136719946	-0.81291808930301	-0.1102018010873516	0.46250982737689	-0.1650070780385618	1.7404067515336	-0.3479799129717647	-0.3479799129717855	-0.2780667620644341	0.05683441775883617	-0.06160532253301743	0.4963335903843723	1.054526128598338e-07	2.020462867210641e-06	-3.261289738970177e-08	2.328006793749888e-07	2.75670798330158e-07	6.17306738504576e-07	2.079336554679868e-07
1.55	0.02394643881589274	-0.0007303796806366729	0.8721001794425413	0.5776361697707256	-0.3174530892322925	-0.1651261102011836	-0.7531046992005208	0.6788613449030051	0.6788613449030433	-0.1097394523156358	-0.1745320299165044	0.1289917776447421	0.02132252224429781	0.3185494138955356	0.2664897380614781	0.3889083063679082	-2.011483688488608	0.1065183608863587	-0.6565493800952661	0.9297950729089834	-2.030291169030365	-2.030291169030335	-0.1610913163884704	-3.613896814026317e-05	-0.457712304068553	-0.03856158758159905	-0.161152157785548	0.01716260967195389	-0.004492292616362629	-0.2101624276229975	0.07228020278115579	0.03694184332076726	0.2443514413586237	-17.84756279921266	-15.4273846716578	4.870574026711069	-7.922457111045432	-648.4121334984758	-75.33935663569201	-18.69645792965046	-0.1348190179660584	0.5866487364478223	-0.8551149355518569	0.03139898933064564	0.4413004225477223	-0.1891908528406233	1.647777802276118	-0.1848013156886689	-0.1848013156920045	-0.2720775856152808	-0.01393813485959482	-0.01781070621311115	0.4828850244740371	6.746133101444954e-08	2.073200701713643e-06	9.728808665764182e-08	2.657776989368581e-07	2.230760623652528e-07	5.906388922498958e-07	1.958582099722649e-07
1.56	0.02712466426810725	0.001963440253896058	0.8759457943053128	0.5575258794004637	-0.3163656514492932	-0.1716990593040433	-0.743725759423535	0.6585522551978115	0.6585522551978636	-0.1113638635187107	-0.1745317067911965	0.1244148215118268	0.02096153318698014	0.3170516289007227	0.2722347933046773	0.3801435563467189	-2.010307412376641	0.110963345843405	-0.6579617879183992	0.9458456995864951	-2.031237372049988	-2.03123737204998	-0.1637836195871334	0.00011071280600791	-0.4575900840591627	-0.03362036410703179	-0.1538100223447027	0.01604714829861024	-0.004393723647406035	-0.2066886049456199	0.07286614087991877	0.03607117759583264	0.2371856097587165	-17.47094395091718	-15.16025954821599	4.8794583995862	-7.764280894880116	-644.4736061553399	-75.29329266122519	-19.34335775510564	-0.1664545520588874	0.561942122785873	-0.8979397260629054	0.2100275237257826	0.4532176790901915	-0.06927392861466923	1.56378726926765	-0.001002602202010661	-0.001002602202010659	-0.2664419831075755	0.06891232512272084	0.04550886768803505	0.5125443128145679	4.936998995238883e-08	2.092963112170714e-06	1.355513109491785e-07	2.787991296540876e-07	2.018854852401843e-07	5.805588919008635e-07	1.916656535444629e-07
